# xmcd
#
# Track frame offsets:
#	150
#	14670
#	24150
#	37462
#	49925
#	64977
#	81280
#	93755
#	104415
#	129800
#	141925
#	161162
#	185390
#	197515
#
# Disc length: 3062 seconds
#
# Revision: 1
# Processed by: cddbd v1.5.2PL0 Copyright (c) Steve Scherf et al.
# Submitted via: audiograbber 1.83.01
#
DISCID=c00bf40e
DTITLE=Various Artist - Movin' Thru Memphis and Mississippi
DYEAR=1995
DGENRE=Pop
TTITLE0=Neil Diamond - Memphis Flyer
TTITLE1=Scotty Moore - Don't Be Cruel
TTITLE2=Roy Orbison - Pretty Woman
TTITLE3=Jerry Lee Lewis - Great Balls Of Fire
TTITLE4=Denise LaSalle - My Toot Toot
TTITLE5=B.B.King - Ain't Nobody Home
TTITLE6=Dolly Parton - Night Train To Memphis
TTITLE7=Carl Perkins - Blue Suede Shoes
TTITLE8=Booker T. and The M.G.'s - Mo' Greens
TTITLE9=David Allan Coe - (Sitting On) The Dock Of The Bay
TTITLE10=Buddy Guy - Mustang Sally
TTITLE11=Muddy Waters - Mannish Boy
TTITLE12=Charlie Rich - The Most Beautiful Girl
TTITLE13=Dave Brubeck - Southern Scene
EXTD=
EXTT0=
EXTT1=
EXTT2=
EXTT3=
EXTT4=
EXTT5=
EXTT6=
EXTT7=
EXTT8=
EXTT9=
EXTT10=
EXTT11=
EXTT12=
EXTT13=
PLAYORDER=
